<?xml version="1.0" standalone="no"?><!DOCTYPE svg PUBLIC "-//W3C//DTD SVG 1.1//EN" "http://www.w3.org/Graphics/SVG/1.1/DTD/svg11.dtd"><svg t="1623379985292" class="icon" viewBox="0 0 1024 1024" version="1.1" xmlns="http://www.w3.org/2000/svg" p-id="3747" xmlns:xlink="http://www.w3.org/1999/xlink" width="64" height="64"><defs><style type="text/css"></style></defs><path d="M945.664 204.8s-87.552-5.632-133.632-47.616C763.904 113.664 757.76 33.28 757.76 33.28s-119.296-21.504-240.128-21.504c-119.296 0-240.128 21.504-240.128 21.504s-8.192 80.384-53.76 121.856C176.128 199.68 90.112 204.8 90.112 204.8s-9.216 156.672 4.096 292.864c12.8 134.144 46.08 266.24 168.96 366.592 100.352 81.92 250.88 147.456 250.88 147.456s118.272-51.712 203.776-107.52c94.208-61.952 182.272-145.92 209.408-306.688 28.672-169.472 18.432-392.704 18.432-392.704z m-262.656 631.808c-56.832 37.376-131.072 72.192-158.208 84.48V508.416H167.936c-0.512-3.072-0.512-5.632-1.024-8.704-10.752-112.64-3.072-242.688-3.072-242.688s71.168-4.096 111.104-40.96c37.376-34.304 44.544-100.864 44.544-100.864S419.84 97.28 518.656 97.28h7.168v410.624l340.992 0.512c-2.56 25.088-5.632 50.176-9.216 73.728-23.552 133.632-96.768 203.776-174.592 254.464z" p-id="3748" fill="#02779F"></path></svg>