<svg t="1613961322833" class="icon" viewBox="0 0 1024 1024" version="1.1" xmlns="http://www.w3.org/2000/svg" p-id="7485" width="48" height="48"><path d="M992 960H64V32C64 12.8 51.2 0 32 0S0 12.8 0 32v960c0 19.2 12.8 32 32 32h960c19.2 0 32-12.8 32-32s-12.8-32-32-32z" fill="#14ADC4" p-id="7486"></path><path d="M672 864H512c-19.2 0-32-12.8-32-32V224c0-19.2 12.8-32 32-32h160c19.2 0 32 12.8 32 32V832c0 19.2-12.8 32-32 32z m-128-64H640V256H544v544zM352 864H192c-19.2 0-32-12.8-32-32V352c0-12.8 12.8-32 32-32h160c19.2 0 32 19.2 32 32V832c0 19.2-12.8 32-32 32z m-128-64H320V384H224v416zM992 864H832c-19.2 0-32-12.8-32-32V32c0-19.2 12.8-32 32-32h160c19.2 0 32 12.8 32 32V832c0 19.2-12.8 32-32 32z m-128-64H960V64h-96v736z" fill="#14ADC4" p-id="7487"></path></svg>