<?xml version="1.0" encoding="utf-8"?>
<svg version="1.1" xmlns:xlink="http://www.w3.org/1999/xlink" width="16px" height="16px" xmlns="http://www.w3.org/2000/svg">
  <g transform="matrix(1 0 0 1 -209 -89 )">
    <path d="M 15.25625 5.53181818181815  L 9.32272727272732 12.1198863636364  C 8.90170454545455 12.5869318181818  8.17556818181822 12.6244318181818  7.70852272727268 12.2051136363636  L 3.9022727272727 8.77897727272727  C 3.43522727272727 8.3579545454545  3.39772727272725 7.63181818181818  3.81704545454545 7.16477272727275  C 4.23806818181822 6.69772727272732  4.96420454545455 6.6602272727273  5.43124999999998 7.0795454545455  L 8.38693181818178 9.74034090909095  L 14.1125 3.38238636363633  C 13.8261363636364 3.00568181818187  13.5022727272727 2.64943181818182  13.1375 2.3204545454546  C 10.00625 -0.498863636363581  5.17897727272725 -0.246590909090855  2.3579545454545 2.88636363636363  C -0.46306818181813 6.01931818181822  -0.209090909090946 10.8465909090909  2.92386363636365 13.6676136363636  C 6.05681818181813 16.4886363636364  10.8840909090909 16.2363636363636  13.7051136363636 13.1034090909091  C 15.6227272727273 10.9744318181819  16.11875 8.06477272727273  15.25625 5.53181818181815  Z " fill-rule="nonzero" fill="#f2f2f2" stroke="none" transform="matrix(1 0 0 1 209 89 )" />
  </g>
</svg>