<svg t="1614840443024" class="icon" viewBox="0 0 1024 1024" version="1.1" xmlns="http://www.w3.org/2000/svg" p-id="4223" width="48" height="48"><path d="M191.34 119.52h636.4a56.93 56.93 0 0 1 56.93 56.93v671.11a56.93 56.93 0 0 1-56.93 56.93H196.23a56.93 56.93 0 0 1-56.93-56.93v-676a52 52 0 0 1 52.04-52.04z" fill="#CDF1F3" p-id="4224"></path><path d="M827.74 920.5H196.23a73 73 0 0 1-72.92-72.94v-676a68.11 68.11 0 0 1 68-68h636.43a73 73 0 0 1 72.92 72.94v671.06a73 73 0 0 1-72.92 72.94z m-636.41-785a36.07 36.07 0 0 0-36 36v676a41 41 0 0 0 40.91 40.93h631.5a41 41 0 0 0 40.91-40.93V176.44a41 41 0 0 0-40.91-40.93z" fill="#05BAC5" p-id="4225"></path><path d="M305.91 233.47h419.02q62.15 0 62.15 62.15v220.13q0 62.15-62.15 62.15H305.91q-62.15 0-62.15-62.15V295.62q0-62.15 62.15-62.15z" fill="#FFFFFF" p-id="4226"></path><path d="M724.94 593.9h-419a78.23 78.23 0 0 1-78.15-78.15V295.61a78.23 78.23 0 0 1 78.15-78.15h419a78.23 78.23 0 0 1 78.15 78.15v220.14a78.23 78.23 0 0 1-78.15 78.15z m-419-344.44a46.19 46.19 0 0 0-46.14 46.14v220.15a46.19 46.19 0 0 0 46.14 46.14h419a46.19 46.19 0 0 0 46.14-46.14V295.61a46.19 46.19 0 0 0-46.14-46.14z" fill="#05BAC5" p-id="4227"></path><path d="M243.76 732.91a57.83 57.83 0 1 0 115.66 0 57.83 57.83 0 1 0-115.66 0z" fill="#FFFFFF" p-id="4228"></path><path d="M301.58 806.75a73.84 73.84 0 1 1 73.84-73.84 73.91 73.91 0 0 1-73.84 73.84z m0-115.67a41.83 41.83 0 1 0 41.83 41.83 41.86 41.86 0 0 0-41.83-41.83z" fill="#05BAC5" p-id="4229"></path><path d="M461.2 732.91a57.83 57.83 0 1 0 115.66 0 57.83 57.83 0 1 0-115.66 0z" fill="#FFFFFF" p-id="4230"></path><path d="M519 806.75a73.84 73.84 0 1 1 73.84-73.84A73.91 73.91 0 0 1 519 806.75z m0-115.67a41.83 41.83 0 1 0 41.83 41.83A41.87 41.87 0 0 0 519 691.08z" fill="#05BAC5" p-id="4231"></path><path d="M678.65 732.91a57.83 57.83 0 1 0 115.66 0 57.83 57.83 0 1 0-115.66 0z" fill="#FFFFFF" p-id="4232"></path><path d="M736.48 806.75a73.84 73.84 0 1 1 73.84-73.84 73.91 73.91 0 0 1-73.84 73.84z m0-115.67a41.83 41.83 0 1 0 41.83 41.83 41.87 41.87 0 0 0-41.83-41.83zM596.57 396.71L475.86 510.09c-6.37 6-16.82-0.42-13.7-8.31l26.44-66.45c2-5.12-2-10.59-7.82-10.59h-54.07c-7.34 0-11.08-8.24-6-13.22l115-113.38c6.23-6.16 17 0.07 13.91 8l-25.52 66.69c-1.94 5.12 2.08 10.45 7.82 10.45h58.77c7.41 0 11.14 8.45 5.88 13.43z" fill="#05BAC5" p-id="4233"></path><path d="M191.34 119.52h636.4a56.93 56.93 0 0 1 56.93 56.93v671.11a56.93 56.93 0 0 1-56.93 56.93H196.23a56.93 56.93 0 0 1-56.93-56.93v-676a52 52 0 0 1 52.04-52.04z" fill="#CDF1F3" p-id="4234"></path><path d="M827.74 920.5H196.23a73 73 0 0 1-72.92-72.94v-676a68.11 68.11 0 0 1 68-68h636.43a73 73 0 0 1 72.92 72.94v671.06a73 73 0 0 1-72.92 72.94z m-636.41-785a36.07 36.07 0 0 0-36 36v676a41 41 0 0 0 40.91 40.93h631.5a41 41 0 0 0 40.91-40.93V176.44a41 41 0 0 0-40.91-40.93z" fill="#05BAC5" p-id="4235"></path><path d="M305.91 233.47h419.02q62.15 0 62.15 62.15v220.13q0 62.15-62.15 62.15H305.91q-62.15 0-62.15-62.15V295.62q0-62.15 62.15-62.15z" fill="#FFFFFF" p-id="4236"></path><path d="M724.94 593.9h-419a78.23 78.23 0 0 1-78.15-78.15V295.61a78.23 78.23 0 0 1 78.15-78.15h419a78.23 78.23 0 0 1 78.15 78.15v220.14a78.23 78.23 0 0 1-78.15 78.15z m-419-344.44a46.19 46.19 0 0 0-46.14 46.14v220.15a46.19 46.19 0 0 0 46.14 46.14h419a46.19 46.19 0 0 0 46.14-46.14V295.61a46.19 46.19 0 0 0-46.14-46.14z" fill="#05BAC5" p-id="4237"></path><path d="M243.76 732.91a57.83 57.83 0 1 0 115.66 0 57.83 57.83 0 1 0-115.66 0z" fill="#FFFFFF" p-id="4238"></path><path d="M301.58 806.75a73.84 73.84 0 1 1 73.84-73.84 73.91 73.91 0 0 1-73.84 73.84z m0-115.67a41.83 41.83 0 1 0 41.83 41.83 41.86 41.86 0 0 0-41.83-41.83z" fill="#05BAC5" p-id="4239"></path><path d="M461.2 732.91a57.83 57.83 0 1 0 115.66 0 57.83 57.83 0 1 0-115.66 0z" fill="#FFFFFF" p-id="4240"></path><path d="M519 806.75a73.84 73.84 0 1 1 73.84-73.84A73.91 73.91 0 0 1 519 806.75z m0-115.67a41.83 41.83 0 1 0 41.83 41.83A41.87 41.87 0 0 0 519 691.08z" fill="#05BAC5" p-id="4241"></path><path d="M678.65 732.91a57.83 57.83 0 1 0 115.66 0 57.83 57.83 0 1 0-115.66 0z" fill="#FFFFFF" p-id="4242"></path><path d="M736.48 806.75a73.84 73.84 0 1 1 73.84-73.84 73.91 73.91 0 0 1-73.84 73.84z m0-115.67a41.83 41.83 0 1 0 41.83 41.83 41.87 41.87 0 0 0-41.83-41.83zM596.57 396.71L475.86 510.09c-6.37 6-16.82-0.42-13.7-8.31l26.44-66.45c2-5.12-2-10.59-7.82-10.59h-54.07c-7.34 0-11.08-8.24-6-13.22l115-113.38c6.23-6.16 17 0.07 13.91 8l-25.52 66.69c-1.94 5.12 2.08 10.45 7.82 10.45h58.77c7.41 0 11.14 8.45 5.88 13.43z" fill="#05BAC5" p-id="4243"></path><path d="M721.29 673.87l-107 185.34a30.18 30.18 0 0 0 26.14 45.27h214a30.18 30.18 0 0 0 26.14-45.27l-107-185.34a30.18 30.18 0 0 0-52.28 0z" fill="#FFFFFF" p-id="4244"></path><path d="M854.44 920.5h-214a46.18 46.18 0 0 1-40-69.3l107-185.34a46.2 46.2 0 0 1 80 0l107 185.34a46.18 46.18 0 0 1-40 69.3zM735.15 681.87l-107 185.34a14.18 14.18 0 0 0 12.28 21.28h214a14.18 14.18 0 0 0 12.28-21.28l-107-185.34a14.19 14.19 0 0 0-24.57 0z" fill="#F33F2B" p-id="4245"></path><path d="M760.53 849.3a17.6 17.6 0 0 1 5.25 12.86 18.11 18.11 0 0 1-5.25 13.1 19.33 19.33 0 0 1-13.34 5 17.58 17.58 0 0 1-12.87-5.26c-3.82-3.33-5.49-7.62-5.49-12.86s1.67-9.53 5.49-12.86a17.4 17.4 0 0 1 12.86-5 18.92 18.92 0 0 1 13.35 5.02z m2.86-139.15l-6 121.28h-20.21l-6-121.28z" fill="#F33F2B" p-id="4246"></path></svg>