<svg t="1613962869940" class="icon" viewBox="0 0 1024 1024" version="1.1" xmlns="http://www.w3.org/2000/svg" p-id="9105" width="48" height="48"><path d="M0 960h1024v64H0z" fill="#54C3F1" p-id="9106"></path><path d="M96 640h64v352H96zM352 384h64v608h-64zM608 544h64v448h-64zM864 128h64v864h-64z" fill="#54C3F1" p-id="9107"></path><path d="M896 192a96 96 0 1 1 96-96 96 96 0 0 1-96 96z m0-128a32 32 0 1 0 32 32 32 32 0 0 0-32-32zM640 608a96 96 0 1 1 96-96 96 96 0 0 1-96 96z m0-128a32 32 0 1 0 32 32 32 32 0 0 0-32-32zM384 448a96 96 0 1 1 96-96 96 96 0 0 1-96 96z m0-128a32 32 0 1 0 32 32 32 32 0 0 0-32-32zM128 704a96 96 0 1 1 96-96 96 96 0 0 1-96 96z m0-128a32 32 0 1 0 32 32 32 32 0 0 0-32-32z" fill="#54C3F1" p-id="9108"></path><path d="M137.536 553.28l192.128-192.096 45.248 45.28-192.128 192.096zM441.76 425.76l33.92-54.304 106.368 66.496-33.92 54.272zM650.304 434.24l181.408-294.528 54.496 33.6-181.44 294.528z" fill="#54C3F1" p-id="9109"></path></svg>