<svg t="1613630773564" class="icon" viewBox="0 0 1024 1024" version="1.1" xmlns="http://www.w3.org/2000/svg" p-id="1620" width="200" height="200"><path d="M604.498728 445.557252h-91.195929l-93.801527 216.264631h91.195929l-59.928753 182.391857 200.631043-260.559796h-106.829516z" fill="#949FAB" p-id="1621"></path><path d="M888.508906 213.659033h-119.857507v-23.450382h26.05598V39.083969h-26.05598V0h-88.59033v39.083969h-26.05598V192.814249h26.05598v23.450382H557.597964v-26.05598h26.05598V39.083969h-26.05598V0h-88.59033v39.083969h-26.05598V192.814249h26.05598v23.450382h-122.463105v-26.05598h26.05598V39.083969h-26.05598V0H255.348601v39.083969h-26.05598V192.814249h26.05598v23.450382H135.491094C65.139949 213.659033 10.422392 270.982188 10.422392 338.727735v560.203563c0 67.745547 54.717557 125.068702 125.068702 125.068702h753.017812c67.745547 0 125.068702-54.717557 125.068702-125.068702V338.727735c0-67.745547-54.717557-125.068702-125.068702-125.068702z m-182.391858-190.208651h39.08397v5.211196h-39.08397V23.450382z m-26.055979 39.083969h91.195928v13.02799h-91.195928v-13.02799z m0 57.323155v-10.422391h91.195928v13.027989h-91.195928z m0 33.872774h91.195928v13.02799h-91.195928v-13.02799z m26.055979 49.506361v-5.211196h39.08397v5.211196h-39.08397zM492.458015 23.450382H531.541985v5.211196h-39.08397V23.450382z m-26.055979 39.083969H557.597964v13.02799h-91.195928v-13.02799z m0 57.323155v-10.422391H557.597964v13.027989h-91.195928z m0 33.872774H557.597964v13.02799h-91.195928v-13.02799z m26.055979 49.506361v-5.211196H531.541985v5.211196h-39.08397zM278.798982 23.450382h39.08397v5.211196h-39.08397V23.450382z m-26.055979 39.083969h91.195928v13.02799H252.743003v-13.02799z m0 57.323155v-10.422391h91.195928v13.027989H252.743003z m0 33.872774h91.195928v13.02799H252.743003v-13.02799z m26.055979 49.506361v-5.211196h39.08397v5.211196h-39.08397z m654.005089 695.694657c0 23.450382-18.239186 41.689567-41.689567 41.689567h-755.62341c-23.450382 0-41.689567-18.239186-41.689567-41.689567V338.727735c0-23.450382 18.239186-41.689567 41.689567-41.689567h753.017812c23.450382 0 41.689567 18.239186 41.689567 41.689567v560.203563z" fill="#949FAB" p-id="1622"></path><path d="M810.340967 346.544529h-599.287532c-18.239186 0-31.267176 13.02799-31.267175 31.267176V859.847328c0 18.239186 13.02799 31.267176 31.267175 31.267176h599.287532c18.239186 0 31.267176-13.02799 31.267175-31.267176V377.811705c2.605598-18.239186-13.02799-31.267176-31.267175-31.267176z m20.844784 513.302799c0 10.422392-7.816794 20.844784-20.844784 20.844784h-599.287532c-7.816794-2.605598-18.239186-10.422392-18.239186-20.844784V377.811705c0-10.422392 7.816794-20.844784 20.844784-20.844784h599.287532c10.422392 0 20.844784 7.816794 20.844784 20.844784V859.847328z" fill="#949FAB" p-id="1623"></path></svg>