<svg t="1613920359700" class="icon" viewBox="0 0 1024 1024" version="1.1" xmlns="http://www.w3.org/2000/svg" p-id="2400" width="200" height="200"><path d="M590.222222 566.044444h-56.888889l25.6-91.022222s2.844444-8.533333 0-11.377778c-2.844444-2.844444-11.377778 5.688889-11.377777 5.688889l-122.311112 119.466667s-8.533333 8.533333-5.688888 11.377778c2.844444 5.688889 5.688889 5.688889 8.533333 5.688889h59.733333l-19.911111 91.022222s-2.844444 8.533333 2.844445 11.377778c5.688889 2.844444 8.533333-2.844444 11.377777-5.688889 2.844444-2.844444 116.622222-119.466667 116.622223-119.466667s5.688889-5.688889 0-11.377778c-2.844444-8.533333-8.533333-5.688889-8.533334-5.688889zM698.311111 537.6c-2.844444-2.844444-11.377778-2.844444-14.222222 0-2.844444 2.844444-2.844444 11.377778 0 14.222222 22.755556 22.755556 22.755556 56.888889 0 79.644445-2.844444 2.844444-2.844444 11.377778 0 14.222222 2.844444 2.844444 5.688889 2.844444 8.533333 2.844444 2.844444 0 5.688889 0 8.533334-2.844444 28.444444-28.444444 28.444444-76.8-2.844445-108.088889z" p-id="2401" fill="#ffffff"></path><path d="M732.444444 503.466667c-2.844444-2.844444-11.377778-2.844444-14.222222 0-2.844444 2.844444-2.844444 11.377778 0 14.222222 39.822222 39.822222 39.822222 108.088889 0 147.911111-2.844444 2.844444-2.844444 11.377778 0 14.222222 2.844444 2.844444 5.688889 2.844444 8.533334 2.844445 2.844444 0 5.688889 0 8.533333-2.844445 45.511111-48.355556 45.511111-128-2.844445-176.355555z" p-id="2402" fill="#ffffff"></path><path d="M752.355556 469.333333c-2.844444 2.844444-2.844444 11.377778 0 14.222223 59.733333 59.733333 59.733333 156.444444 0 216.177777-2.844444 2.844444-2.844444 11.377778 0 14.222223 2.844444 2.844444 5.688889 2.844444 8.533333 2.844444 2.844444 0 5.688889 0 8.533333-2.844444 68.266667-68.266667 68.266667-179.2 0-244.622223-8.533333-2.844444-14.222222-2.844444-17.066666 0zM339.911111 554.666667c2.844444-5.688889 2.844444-14.222222-2.844444-17.066667-2.844444-2.844444-11.377778-2.844444-14.222223 0-31.288889 31.288889-31.288889 79.644444 0 110.933333 2.844444 2.844444 5.688889 2.844444 8.533334 2.844445 2.844444 0 5.688889 0 8.533333-2.844445 2.844444-2.844444 2.844444-11.377778 0-14.222222-22.755556-22.755556-22.755556-56.888889 0-79.644444z" p-id="2403" fill="#ffffff"></path><path d="M302.933333 517.688889c2.844444-2.844444 2.844444-11.377778 0-14.222222-2.844444-2.844444-11.377778-2.844444-14.222222 0-48.355556 48.355556-48.355556 128 0 179.2 2.844444 2.844444 5.688889 2.844444 8.533333 2.844444s5.688889 0 8.533334-2.844444c2.844444-2.844444 2.844444-11.377778 0-14.222223-42.666667-42.666667-42.666667-108.088889-2.844445-150.755555z" p-id="2404" fill="#ffffff"></path><path d="M226.133333 591.644444c0-39.822222 17.066667-79.644444 45.511111-108.088888 2.844444-2.844444 2.844444-11.377778 0-14.222223-2.844444-2.844444-11.377778-2.844444-14.222222 0-68.266667 68.266667-68.266667 179.2 0 244.622223 2.844444 2.844444 5.688889 2.844444 8.533334 2.844444 2.844444 0 5.688889 0 8.533333-2.844444 2.844444-2.844444 2.844444-11.377778 0-14.222223-34.133333-28.444444-48.355556-65.422222-48.355556-108.088889z" p-id="2405" fill="#ffffff"></path><path d="M960 34.133333C937.244444 14.222222 908.8 0 874.666667 0h-728.177778C81.066667 0 27.022222 54.044444 27.022222 119.466667V881.777778c0 65.422222 54.044444 119.466667 119.466667 119.466666h731.022222c65.422222 0 119.466667-54.044444 119.466667-119.466666V119.466667C994.133333 85.333333 979.911111 56.888889 960 34.133333z m-273.066667 890.311111h-352.711111v-139.377777h352.711111v139.377777z m233.244445-233.244444V864.711111c0 34.133333-25.6 59.733333-59.733334 59.733333h-147.911111v-147.911111c0-8.533333-8.533333-14.222222-19.911111-14.222222h-364.088889c-11.377778 0-19.911111 5.688889-19.911111 14.222222v147.911111h-147.911111c-34.133333 0-59.733333-28.444444-59.733333-59.733333V136.533333c0-34.133333 28.444444-59.733333 59.733333-59.733333h696.888889c17.066667 0 31.288889 5.688889 42.666667 17.066667 11.377778 11.377778 17.066667 25.6 17.066666 42.666666v494.933334h2.844445v59.733333z" p-id="2406" fill="#ffffff"></path><path d="M792.177778 170.666667h-563.2c-17.066667 0-31.288889 14.222222-31.288889 31.288889v133.688888c0 17.066667 14.222222 31.288889 31.288889 31.288889h563.2c17.066667 0 31.288889-14.222222 31.288889-31.288889V201.955556c0-17.066667-14.222222-31.288889-31.288889-31.288889z m17.066666 162.133333c0 11.377778-8.533333 17.066667-17.066666 17.066667h-563.2c-11.377778 0-17.066667-8.533333-17.066667-17.066667V201.955556c0-11.377778 8.533333-17.066667 17.066667-17.066667h563.2c11.377778 0 17.066667 8.533333 17.066666 17.066667v130.844444z" p-id="2407" fill="#ffffff"></path><path d="M832 119.466667h-642.844444c-22.755556 0-42.666667 19.911111-42.666667 42.666666v210.488889c0 22.755556 19.911111 42.666667 42.666667 42.666667h640c22.755556 0 42.666667-19.911111 42.666666-42.666667V162.133333c2.844444-22.755556-17.066667-42.666667-39.822222-42.666666z m5.688889 253.155555c0 2.844444-2.844444 8.533333-8.533333 8.533334h-640c-2.844444 0-8.533333-2.844444-8.533334-8.533334V162.133333c0-2.844444 2.844444-8.533333 8.533334-8.533333h640c2.844444 0 8.533333 2.844444 8.533333 8.533333v210.488889zM405.333333 893.155556c5.688889 0 14.222222 0 19.911111-2.844445 2.844444 0 5.688889-2.844444 11.377778-5.688889v-25.6-11.377778h-31.288889v17.066667h14.222223v11.377778c-5.688889 2.844444-8.533333 2.844444-14.222223 2.844444s-11.377778-2.844444-14.222222-5.688889c-2.844444-2.844444-5.688889-11.377778-5.688889-19.911111 0-14.222222 5.688889-22.755556 17.066667-22.755555 2.844444 0 5.688889 0 8.533333 2.844444 2.844444 2.844444 2.844444 2.844444 2.844445 5.688889l19.911111-5.688889c-2.844444-5.688889-2.844444-8.533333-5.688889-11.377778-5.688889-8.533333-14.222222-11.377778-25.6-11.377777-22.755556 0-36.977778 14.222222-36.977778 39.822222 0 11.377778 2.844444 22.755556 11.377778 31.288889 5.688889 8.533333 14.222222 11.377778 28.444444 11.377778zM465.066667 893.155556v-25.6h14.222222c17.066667 0 28.444444-8.533333 28.444444-25.6 0-17.066667-11.377778-25.6-28.444444-25.6h-34.133333V881.777778c2.844444 2.844444 0 5.688889 0 11.377778h19.911111z m0-62.577778h14.222222c5.688889 0 11.377778 2.844444 11.377778 8.533333s-2.844444 11.377778-11.377778 11.377778h-14.222222v-19.911111zM536.177778 878.933333v-14.222222h8.533333c2.844444 0 5.688889 0 8.533333 2.844445s2.844444 2.844444 5.688889 11.377777c2.844444 8.533333 2.844444 11.377778 5.688889 14.222223h22.755556c-2.844444-5.688889-2.844444-8.533333-5.688889-8.533334-2.844444-11.377778-5.688889-14.222222-5.688889-17.066666-2.844444-5.688889-5.688889-8.533333-8.533333-11.377778 5.688889-2.844444 5.688889-2.844444 8.533333-5.688889 2.844444-2.844444 5.688889-8.533333 5.688889-14.222222 0-14.222222-8.533333-19.911111-22.755556-19.911111h-36.977777V881.777778c-5.688889 2.844444-5.688889 5.688889-5.688889 11.377778h19.911111v-14.222223z m0-48.355555h14.222222c5.688889 0 8.533333 2.844444 8.533333 8.533333s-2.844444 8.533333-8.533333 8.533333h-14.222222v-17.066666zM621.511111 878.933333c-5.688889 0-8.533333-2.844444-11.377778-5.688889 0-2.844444-2.844444-2.844444-2.844444-5.688888l-19.911111 2.844444c0 2.844444 0 5.688889 2.844444 8.533333 2.844444 5.688889 5.688889 8.533333 11.377778 11.377778 5.688889 2.844444 11.377778 5.688889 19.911111 5.688889 11.377778 0 19.911111-2.844444 25.6-8.533333s5.688889-11.377778 5.688889-17.066667c0-8.533333-2.844444-14.222222-11.377778-19.911111-2.844444-2.844444-8.533333-2.844444-14.222222-5.688889l-11.377778-2.844444c-2.844444 0-5.688889-2.844444-5.688889-5.688889s2.844444-8.533333 8.533334-8.533334 11.377778 2.844444 11.377777 8.533334l19.911112-2.844445c0-5.688889-2.844444-8.533333-5.688889-11.377778-5.688889-5.688889-14.222222-11.377778-25.6-11.377777-17.066667 0-28.444444 8.533333-28.444445 22.755555 0 8.533333 2.844444 14.222222 8.533334 17.066667 2.844444 2.844444 5.688889 2.844444 14.222222 5.688889s11.377778 2.844444 14.222222 2.844444c2.844444 0 2.844444 2.844444 2.844444 5.688889 2.844444 11.377778 0 14.222222-8.533333 14.222222z" p-id="2408" fill="#ffffff"></path></svg>