<svg t="1613920622060" class="icon" viewBox="0 0 1024 1024" version="1.1" xmlns="http://www.w3.org/2000/svg" p-id="5128" width="200" height="200"><path d="M776.2 372.8v399.9H248V372.8h528.2m120-120H128v639.9h768.1V252.8h0.1z" p-id="5129" fill="#ffffff"></path><path d="M379.7 503.4c-38.3 0-69.4 31.1-69.4 69.4s31.1 69.4 69.4 69.4c38.3 0 69.4-31.1 69.4-69.4s-31.1-69.4-69.4-69.4zM645.1 503.4c-38.3 0-69.4 31.1-69.4 69.4s31.1 69.4 69.4 69.4 69.4-31.1 69.4-69.4-31.1-69.4-69.4-69.4zM287.6 97h449v100h-449zM63.3 522.8H192v100H63.3zM831.2 522.8h129.1v100H831.2z" p-id="5130" fill="#ffffff"></path><path d="M453 139h120v178.6H453z" p-id="5131" fill="#ffffff"></path></svg>