<svg t="1614562958035" class="icon" viewBox="0 0 1129 1024" version="1.1" xmlns="http://www.w3.org/2000/svg" p-id="2962" width="48" height="48"><path d="M1096.033103 548.016552l-67.795862-141.24138c-5.649655-22.598621-24.293517-28.248276-39.547586-28.248275h-67.795862V50.846897c0-28.248276-23.163586-50.846897-50.846896-50.846897-27.68331 0-50.846897 23.163586-50.846897 50.846897v327.68H282.482759V50.846897C282.482759 22.598621 259.319172 0 231.635862 0c-28.248276 0-50.846897 23.163586-50.846896 50.846897v327.68H107.343448c-15.819034 0-22.598621 5.649655-33.897931 28.248275l-73.445517 141.24138v435.023448c0 15.819034 12.994207 28.248276 28.248276 28.248276h1039.536552c15.819034 0 28.248276-12.994207 28.248275-28.248276V548.016552z m-977.390344-22.598621l16.948965-33.897931c11.29931-22.598621 12.994207-28.248276 28.248276-28.248276h762.703448c15.819034 0 22.598621 5.649655 33.897931 28.248276l16.948966 33.897931c5.649655 16.948966 27.118345 39.547586 11.29931 39.547586H107.343448c-15.819034 0 5.649655-22.598621 11.299311-39.547586z m330.504827 333.329655a64.617931 64.617931 0 0 1-64.971034-64.971034 64.617931 64.617931 0 0 1 64.971034-64.971035 64.617931 64.617931 0 0 1 64.971035 64.971035 64.617931 64.617931 0 0 1-64.971035 64.971034z m163.84 0a64.617931 64.617931 0 0 1-64.971034-64.971034 64.617931 64.617931 0 0 1 64.971034-64.971035 64.617931 64.617931 0 0 1 64.971035 64.971035 64.617931 64.617931 0 0 1-64.971035 64.971034z m259.884138 0h-101.693793A65.324138 65.324138 0 0 1 706.206897 793.776552a65.324138 65.324138 0 0 1 64.971034-64.971035h101.693793a65.324138 65.324138 0 0 1 64.971035 64.971035 65.324138 65.324138 0 0 1-64.971035 64.971034z" fill="#0BECF5" p-id="2963"></path></svg>