<svg version="1.1" xmlns="http://www.w3.org/2000/svg" xmlns:xlink="http://www.w3.org/1999/xlink" width="1553" height="1031"><defs>
    <style type="text/css">
      @font-face {
        font-family: 'topology';
        src: url('http://at.alicdn.com/t/font_1331132_h688rvffmbc.ttf?t=1569311680797') format('truetype');
      }
    </style>
  </defs><g><g><path fill="none" stroke="#870101" paint-order="fill stroke markers" d=" M 301.6842712842712 247.32929292929293 A 10.285714285714288 10.285714285714288 0 1 1 301.68426614141447 247.3190072167215" stroke-miterlimit="10" stroke-dasharray=""/></g><g transform="translate(290.8271284271283,245.7844155328824) rotate(90,0,0) translate(-290.8271284271283,-245.7844155328824)"><path fill="none" stroke="#870101" paint-order="fill stroke markers" d=" M 278.8271284271283 245.7844155328824 L 302.8271284271283 245.7844155328824" stroke-miterlimit="10" stroke-dasharray=""/></g><g><path fill="none" stroke="#870101" paint-order="fill stroke markers" d=" M 301.6842712842712 270.1864357864357 A 10.285714285714288 10.285714285714288 0 1 1 301.68426614141447 270.1761500738643" stroke-miterlimit="10" stroke-dasharray=""/></g><g transform="translate(290.8271284271283,272.0701298185968) rotate(90,0,0) translate(-290.8271284271283,-272.0701298185968)"><path fill="none" stroke="#870101" paint-order="fill stroke markers" d=" M 278.8271284271283 272.0701298185968 L 302.8271284271283 272.0701298185968" stroke-miterlimit="10" stroke-dasharray=""/></g><g><path fill="none" stroke="#870101" paint-order="fill stroke markers" d=" M 281.1128427128426 247.9007215007215 A 10.285714285714288 10.285714285714288 0 1 1 281.1128375699859 247.89043578815006" stroke-miterlimit="10" stroke-dasharray=""/></g><g transform="translate(270.25569985569973,246.35584410431096) rotate(90,0,0) translate(-270.25569985569973,-246.35584410431096)"><path fill="none" stroke="#870101" paint-order="fill stroke markers" d=" M 258.25569985569973 246.35584410431096 L 282.25569985569973 246.35584410431096" stroke-miterlimit="10" stroke-dasharray=""/></g><g><path fill="none" stroke="#870101" paint-order="fill stroke markers" d=" M 281.1128427128426 270.7578643578645 A 10.285714285714288 10.285714285714288 0 1 1 281.1128375699859 270.74757864529306" stroke-miterlimit="10" stroke-dasharray=""/></g><g transform="translate(270.25569985569973,272.64155839002535) rotate(90,0,0) translate(-270.25569985569973,-272.64155839002535)"><path fill="none" stroke="#870101" paint-order="fill stroke markers" d=" M 258.25569985569973 272.64155839002535 L 282.25569985569973 272.64155839002535" stroke-miterlimit="10" stroke-dasharray=""/></g><g><path fill="none" stroke="#870101" paint-order="fill stroke markers" d=" M 324.54141414141407 247.9007215007215 A 10.285714285714288 10.285714285714288 0 1 1 324.54140899855736 247.89043578815006" stroke-miterlimit="10" stroke-dasharray=""/></g><g transform="translate(313.6842712842713,246.35584410431096) rotate(90,0,0) translate(-313.6842712842713,-246.35584410431096)"><path fill="none" stroke="#870101" paint-order="fill stroke markers" d=" M 301.6842712842713 246.35584410431096 L 325.6842712842713 246.35584410431096" stroke-miterlimit="10" stroke-dasharray=""/></g><g><path fill="none" stroke="#870101" paint-order="fill stroke markers" d=" M 324.54141414141407 270.7578643578645 A 10.285714285714288 10.285714285714288 0 1 1 324.54140899855736 270.74757864529306" stroke-miterlimit="10" stroke-dasharray=""/></g><g transform="translate(313.6842712842713,272.64155839002535) rotate(90,0,0) translate(-313.6842712842713,-272.64155839002535)"><path fill="none" stroke="#870101" paint-order="fill stroke markers" d=" M 301.6842712842713 272.64155839002535 L 325.6842712842713 272.64155839002535" stroke-miterlimit="10" stroke-dasharray=""/></g></g></svg>