<svg t="1614561610627" class="icon" viewBox="0 0 1024 1024" version="1.1" xmlns="http://www.w3.org/2000/svg" p-id="2153" width="48" height="48"><path d="M730.273684 353.010526H363.789474c-10.778947 0-21.557895-8.084211-21.557895-21.557894V185.936842c0-10.778947 8.084211-21.557895 21.557895-21.557895h366.48421c10.778947 0 21.557895 8.084211 21.557895 21.557895v145.51579c0 10.778947-10.778947 21.557895-21.557895 21.557894z" fill="#FF0000" opacity=".4" p-id="2154"></path><path d="M821.894737 35.031579H274.863158C242.526316 35.031579 215.578947 59.284211 215.578947 88.926316V161.684211l-53.894736 13.473684h-2.694737s-2.694737 0-2.694737 2.694737c0 0-2.694737 0-2.694737 2.694736l-2.694737 2.694737-2.694737 2.694737V326.063158s0 2.694737 2.694737 2.694737l2.694737 2.694737s2.694737 0 2.694737 2.694736c0 0 2.694737 0 2.694737 2.694737l56.589473 16.168421V700.631579l-53.894736 10.778947h-2.694737s-2.694737 0-2.694737 2.694737c0 0-2.694737 0-2.694737 2.694737l-2.694737 2.694737-2.694737 2.694737V862.315789s0 2.694737 2.694737 2.694737l2.694737 2.694737s2.694737 0 2.694737 2.694737l2.694737 2.694737 56.589473 18.863158v43.115789c0 29.642105 24.252632 53.894737 56.589474 53.894737h547.031579c32.336842 0 56.589474-24.252632 56.589474-53.894737V88.926316c2.694737-29.642105-24.252632-53.894737-53.894737-53.894737zM183.242105 307.2V207.494737L215.578947 202.105263v113.178948l-32.336842-8.084211z m2.694737 536.252632v-97.010527l29.642105-8.08421v113.178947l-29.642105-8.08421z m654.821053 91.621052c0 8.084211-8.084211 16.168421-18.863158 16.168421H274.863158c-10.778947 0-18.863158-8.084211-18.863158-16.168421V88.926316c0-8.084211 8.084211-16.168421 18.863158-16.168421h547.031579c10.778947 0 18.863158 8.084211 18.863158 16.168421v846.147368z" fill="#FF0000" p-id="2155"></path><path d="M730.273684 148.210526H363.789474c-21.557895 0-40.421053 18.863158-40.421053 40.421053v145.515789c0 21.557895 18.863158 40.421053 40.421053 40.421053h366.48421c21.557895 0 40.421053-18.863158 40.421053-40.421053V185.936842c0-21.557895-18.863158-37.726316-40.421053-37.726316z m2.694737 183.242106s-2.694737 2.694737 0 0H363.789474l2.694737-145.51579 366.48421 2.694737v142.821053zM627.873684 649.431579V646.736842s0-2.694737-2.694737-2.694737c0 0 0-2.694737-2.694736-2.694737l-2.694737-2.694736-2.694737-2.694737h-2.694737-94.315789l61.978947-99.705263c5.389474-8.084211 2.694737-21.557895-5.389474-26.947369-8.084211-5.389474-21.557895-2.694737-26.947368 5.389474l-80.842105 129.347368v16.168421s0 2.694737 2.694736 2.694737c0 0 0 2.694737 2.694737 2.694737l2.694737 2.694737 2.694737 2.694737h105.094737l-59.284211 102.4c-5.389474 8.084211-2.694737 21.557895 8.084211 26.947368 2.694737 2.694737 5.389474 2.694737 8.08421 2.694737 5.389474 0 13.473684-2.694737 16.168421-10.778947l75.452632-129.347369v-2.694737-2.694737c-5.389474-5.389474-5.389474-5.389474-5.389474-8.08421z" fill="#FF0000" p-id="2156"></path></svg>