<svg version="1.1" xmlns="http://www.w3.org/2000/svg" xmlns:xlink="http://www.w3.org/1999/xlink" width="1553" height="1031"><defs>
    <style type="text/css">
      @font-face {
        font-family: 'topology';
        src: url('http://at.alicdn.com/t/font_1331132_h688rvffmbc.ttf?t=1569311680797') format('truetype');
      }
    </style>
  </defs><g><g transform="translate(202.78831168831152,222.1655482954567) rotate(135,0,0) translate(-202.78831168831152,-222.1655482954567)"><path fill="none" stroke="#870101" paint-order="fill stroke markers" d=" M 197.78831168831152 222.1655482954567 L 207.78831168831152 222.1655482954567" stroke-miterlimit="10" stroke-dasharray=""/></g><g transform="translate(209.7883116883113,222.1655482954567) rotate(45,0,0) translate(-209.7883116883113,-222.1655482954567)"><path fill="none" stroke="#870101" paint-order="fill stroke markers" d=" M 204.7883116883113 222.1655482954567 L 214.7883116883113 222.1655482954567" stroke-miterlimit="10" stroke-dasharray=""/></g><g transform="translate(202.78831168831152,227.1655482954567) rotate(135,0,0) translate(-202.78831168831152,-227.1655482954567)"><path fill="none" stroke="#870101" paint-order="fill stroke markers" d=" M 197.78831168831152 227.1655482954567 L 207.78831168831152 227.1655482954567" stroke-miterlimit="10" stroke-dasharray=""/></g><g transform="translate(209.7883116883113,227.1655482954567) rotate(45,0,0) translate(-209.7883116883113,-227.1655482954567)"><path fill="none" stroke="#870101" paint-order="fill stroke markers" d=" M 204.7883116883113 227.1655482954567 L 214.7883116883113 227.1655482954567" stroke-miterlimit="10" stroke-dasharray=""/></g><g transform="translate(206.28831168831152,247.6655482954567) rotate(90,0,0) translate(-206.28831168831152,-247.6655482954567)"><path fill="none" stroke="#00ff7b" paint-order="fill stroke markers" d=" M 187.28831168831152 247.6655482954567 L 225.28831168831155 247.6655482954567" stroke-miterlimit="10" stroke-dasharray=""/></g><g><g><path fill="none" stroke="none"/><text fill="#00ff7b" stroke="none" font-family="&quot;Hiragino Sans GB&quot;, &quot;Microsoft YaHei&quot;, &quot;Helvetica Neue&quot;, Helvetica, Arial " font-size="12.00000000000001px" font-style="normal" font-weight="normal" text-decoration="normal" x="206.2883116883116" y="290.7290403589488" text-anchor="middle" dominant-baseline="central">x</text></g></g><g transform="translate(197.78831168831155,290.95844151427025) rotate(45,0,0) translate(-197.78831168831155,-290.95844151427025)"><path fill="none" stroke="#00ff7b" paint-order="fill stroke markers" d=" M 184.44516593780395 290.95844151427025 L 211.13145743881918 290.95844151427025" stroke-miterlimit="10" stroke-dasharray=""/></g><g transform="translate(206.28831168831152,317.66554829545663) rotate(90,0,0) translate(-206.28831168831152,-317.66554829545663)"><path fill="none" stroke="#00ff7b" paint-order="fill stroke markers" d=" M 187.28831168831152 317.66554829545663 L 225.28831168831155 317.66554829545663" stroke-miterlimit="10" stroke-dasharray=""/></g></g></svg>